<svg xmlns="http://www.w3.org/2000/svg" width="1200" height="630" viewBox="0 0 1200 630">
  <rect width="1200" height="630" fill="#FBFAF6"/>
  <circle cx="1050" cy="80" r="220" fill="#eceafc" opacity="0.55"/>
  <circle cx="120" cy="560" r="180" fill="#eceafc" opacity="0.4"/>
  <rect x="0" y="0" width="1200" height="12" fill="#4638c9"/>
<g transform="translate(310,60)">
  <g transform="rotate(6 260 200)">
    <rect x="80" y="120" width="380" height="175" rx="28" fill="#ffffff" stroke="#e7e4da" stroke-width="3"/>
    <circle cx="176" cy="207" r="60" fill="#232838"/>
    <circle cx="176" cy="207" r="32" fill="#4638c9"/>
    <circle cx="163" cy="194" r="11" fill="#FBFAF6" opacity="0.85"/>
    <rect x="270" y="165" width="150" height="22" rx="11" fill="#eceafc"/>
    <rect x="270" y="209" width="110" height="22" rx="11" fill="#eceafc"/>
    <rect x="238" y="295" width="28" height="80" rx="12" fill="#6b7080"/>
  </g>
  <path d="M 490 310 C 580 380 500 470 380 490 C 280 507 240 540 250 580" stroke="#4638c9" stroke-width="15" fill="none" stroke-linecap="round"/>
  <g transform="translate(212,530) rotate(14)">
    <rect x="0" y="0" width="64" height="80" rx="8" fill="#232838"/>
    <rect x="11" y="-14" width="42" height="20" rx="4" fill="#232838"/>
    <g fill="#4638c9"><rect x="11" y="14" width="7" height="22"/><rect x="23" y="14" width="7" height="22"/><rect x="35" y="14" width="7" height="22"/><rect x="47" y="14" width="7" height="22"/></g>
  </g>
</g>
<g transform="translate(850,430)">
  <rect x="0" y="0" width="160" height="76" rx="14" fill="#ffffff" stroke="#6b7080" stroke-width="4"/>
  <rect x="160" y="22" width="18" height="32" rx="5" fill="#6b7080"/>
  <rect x="12" y="12" width="42" height="52" rx="6" fill="#e7e4da"/>
  <line x1="-22" y1="98" x2="200" y2="-22" stroke="#c0392b" stroke-width="13" stroke-linecap="round"/>
</g>
</svg>
